G04*
G04 #@! TF.GenerationSoftware,Altium Limited,Altium Designer,20.1.14 (287)*
G04*
G04 Layer_Physical_Order=1*
G04 Layer_Color=255*
%FSLAX25Y25*%
%MOIN*%
G70*
G04*
G04 #@! TF.SameCoordinates,1A763A23-7295-4F3A-9B5C-2D741166247D*
G04*
G04*
G04 #@! TF.FilePolarity,Positive*
G04*
G01*
G75*
%ADD14R,0.04724X0.02362*%
%ADD15R,0.03740X0.03937*%
%ADD16R,0.03937X0.03740*%
%ADD17R,0.07800X0.02200*%
%ADD18R,0.03740X0.03543*%
%ADD19R,0.05709X0.04528*%
%ADD20R,0.09843X0.06693*%
%ADD21R,0.06299X0.11811*%
%ADD22R,0.03937X0.21654*%
%ADD34C,0.01968*%
%ADD35C,0.00787*%
%ADD36C,0.03937*%
%ADD37C,0.05906*%
%ADD38O,0.05906X0.07874*%
%ADD39C,0.02200*%
G36*
X129921Y104331D02*
X0D01*
Y160000D01*
X129921D01*
Y104331D01*
D02*
G37*
%LPC*%
G36*
X53937Y152362D02*
X46063D01*
Y138976D01*
X53937D01*
Y152362D01*
D02*
G37*
G36*
X11417D02*
X3543D01*
Y138976D01*
X11417D01*
Y152362D01*
D02*
G37*
G36*
X35646Y148638D02*
X33177D01*
Y137311D01*
X35646D01*
Y148638D01*
D02*
G37*
G36*
X32177D02*
X29709D01*
Y137311D01*
X32177D01*
Y148638D01*
D02*
G37*
G36*
X83366Y157185D02*
X78051D01*
Y152067D01*
X83366D01*
Y152634D01*
X107277D01*
X115536Y144375D01*
X115254Y143693D01*
X115125Y142717D01*
Y140748D01*
X115254Y139772D01*
X115631Y138862D01*
X116230Y138081D01*
X117011Y137481D01*
X117921Y137104D01*
X118898Y136976D01*
X119874Y137104D01*
X120784Y137481D01*
X121565Y138081D01*
X122165Y138862D01*
X122541Y139772D01*
X122670Y140748D01*
Y142717D01*
X122541Y143693D01*
X122165Y144603D01*
X121565Y145384D01*
X120784Y145984D01*
X119874Y146360D01*
X118898Y146489D01*
X117921Y146360D01*
X117239Y146078D01*
X108627Y154690D01*
X108236Y154951D01*
X107776Y155043D01*
X107775Y155043D01*
X83366D01*
Y157185D01*
D02*
G37*
G36*
X89013Y129679D02*
X84613D01*
Y128079D01*
X89013D01*
Y129679D01*
D02*
G37*
G36*
X82398Y129740D02*
X80028D01*
Y127272D01*
X82398D01*
Y129740D01*
D02*
G37*
G36*
X79028D02*
X76657D01*
Y127272D01*
X79028D01*
Y129740D01*
D02*
G37*
G36*
X126886Y128953D02*
X124516D01*
Y126484D01*
X126886D01*
Y128953D01*
D02*
G37*
G36*
X123516D02*
X121146D01*
Y126484D01*
X123516D01*
Y128953D01*
D02*
G37*
G36*
X89013Y127079D02*
X84613D01*
Y125479D01*
X89013D01*
Y127079D01*
D02*
G37*
G36*
X19685Y148425D02*
X14173D01*
Y125197D01*
X19685D01*
Y148425D01*
D02*
G37*
G36*
X35646Y136311D02*
X33177D01*
Y124984D01*
X35646D01*
Y136311D01*
D02*
G37*
G36*
X32177D02*
X29709D01*
Y124984D01*
X32177D01*
Y136311D01*
D02*
G37*
G36*
X82398Y126272D02*
X80028D01*
Y123803D01*
X82398D01*
Y126272D01*
D02*
G37*
G36*
X79028D02*
X76657D01*
Y123803D01*
X79028D01*
Y126272D01*
D02*
G37*
G36*
X126886Y125484D02*
X124516D01*
Y123016D01*
X126886D01*
Y125484D01*
D02*
G37*
G36*
X123516D02*
X121146D01*
Y123016D01*
X123516D01*
Y125484D01*
D02*
G37*
G36*
X121078Y121768D02*
X118610D01*
Y119398D01*
X121078D01*
Y121768D01*
D02*
G37*
G36*
X63303Y120980D02*
X59949D01*
Y118217D01*
X63303D01*
Y120980D01*
D02*
G37*
G36*
X58949D02*
X55594D01*
Y118217D01*
X58949D01*
Y120980D01*
D02*
G37*
G36*
X60236Y158291D02*
X60236Y158291D01*
X31102D01*
X30641Y158199D01*
X30251Y157938D01*
X30251Y157938D01*
X23952Y151639D01*
X23691Y151248D01*
X23599Y150787D01*
X23599Y150787D01*
Y148425D01*
X22047D01*
Y125197D01*
X27559D01*
Y148425D01*
X26007D01*
Y150289D01*
X31601Y155882D01*
X59737D01*
X70015Y145605D01*
X70015Y145605D01*
X70405Y145344D01*
X70710Y145283D01*
X70661Y144783D01*
X68996D01*
Y139665D01*
X74311D01*
Y140233D01*
X78051D01*
Y139665D01*
X81663D01*
X87534Y133794D01*
X87534Y133794D01*
X87925Y133533D01*
X88386Y133441D01*
X88386Y133441D01*
X90840D01*
X94102Y130179D01*
X93895Y129679D01*
X90013D01*
Y127579D01*
Y125479D01*
X94064D01*
X94413Y125479D01*
X94564Y125041D01*
Y124796D01*
X94200Y124466D01*
X84825D01*
Y123962D01*
X84390Y123783D01*
X83929Y123691D01*
X83538Y123430D01*
X83538Y123430D01*
X82219Y122111D01*
X81958Y121721D01*
X81867Y121260D01*
X81867Y121260D01*
Y116671D01*
X81367Y116464D01*
X80743Y117087D01*
Y118898D01*
X80709Y119072D01*
Y121063D01*
X76964D01*
X75035Y122992D01*
Y124015D01*
X75885D01*
Y129527D01*
X74936D01*
Y131300D01*
X75886D01*
Y136812D01*
X70571D01*
Y131300D01*
X71324D01*
Y129527D01*
X70570D01*
Y124015D01*
X71423D01*
Y122243D01*
X71560Y121552D01*
X71564Y121546D01*
X71287Y121061D01*
X71260Y121063D01*
Y121063D01*
X68735D01*
Y124803D01*
Y131299D01*
X69587D01*
Y136811D01*
X64272D01*
Y131299D01*
X65123D01*
Y126610D01*
X63090D01*
Y127855D01*
X55807D01*
Y126610D01*
X53544D01*
X52852Y126472D01*
X52266Y126081D01*
X47542Y121356D01*
X47150Y120770D01*
X47012Y120079D01*
Y117080D01*
X46933Y117046D01*
X46811Y116953D01*
X42347D01*
Y119912D01*
X42517Y120082D01*
X42959Y120657D01*
X43236Y121328D01*
X43331Y122047D01*
Y136811D01*
X43307Y136992D01*
Y148425D01*
X37795D01*
Y136992D01*
X37771Y136811D01*
Y123199D01*
X37601Y123029D01*
X37160Y122453D01*
X36882Y121782D01*
X36787Y121063D01*
Y118307D01*
X30906D01*
Y110039D01*
X42323D01*
Y111394D01*
X45935D01*
X46151Y111112D01*
X46933Y110512D01*
X47842Y110136D01*
X48819Y110007D01*
X49795Y110136D01*
X50705Y110512D01*
X51486Y111112D01*
X52086Y111893D01*
X52463Y112803D01*
X52591Y113779D01*
X52463Y114756D01*
X52086Y115666D01*
X51486Y116447D01*
X50705Y117046D01*
X50625Y117080D01*
Y119331D01*
X54292Y122997D01*
X55807D01*
Y121752D01*
X63090D01*
Y122997D01*
X65123D01*
Y121063D01*
X64961D01*
Y117535D01*
X64748D01*
Y115854D01*
X68110D01*
Y114854D01*
X64748D01*
Y113173D01*
X64961D01*
Y109646D01*
X71260D01*
Y110005D01*
X71951Y110142D01*
X72537Y110534D01*
X73909Y111906D01*
X74410Y111699D01*
Y109646D01*
X80709D01*
Y111359D01*
X81171Y111550D01*
X81304Y111417D01*
X81890Y111026D01*
X82581Y110888D01*
X84825D01*
Y110691D01*
X94200D01*
Y110772D01*
X98701D01*
X99392Y110910D01*
X99978Y111301D01*
X103836Y115160D01*
X103932Y115303D01*
X104225Y115691D01*
Y115691D01*
X104225Y115691D01*
X113600D01*
Y116375D01*
X114106D01*
X114106Y116375D01*
X114567Y116466D01*
X114641Y116516D01*
X115141Y116249D01*
Y116028D01*
X117610D01*
Y118898D01*
Y121768D01*
X115846D01*
X115802Y122268D01*
X116762Y123228D01*
X120374D01*
Y128740D01*
X118921D01*
Y128741D01*
X118829Y129201D01*
X118568Y129592D01*
X116993Y131167D01*
X116603Y131428D01*
X116142Y131519D01*
X116142Y131519D01*
X101575D01*
X101114Y131428D01*
X100723Y131167D01*
X99206Y129649D01*
X98744Y129840D01*
Y133638D01*
X107677D01*
X107677Y133638D01*
X108138Y133730D01*
X108529Y133991D01*
X109907Y135369D01*
X109907Y135369D01*
X110168Y135760D01*
X110259Y136221D01*
X110259Y136221D01*
Y137198D01*
X110941Y137481D01*
X111723Y138081D01*
X112322Y138862D01*
X112699Y139772D01*
X112828Y140748D01*
Y142717D01*
X112699Y143693D01*
X112322Y144603D01*
X111723Y145384D01*
X110941Y145984D01*
X110031Y146360D01*
X109055Y146489D01*
X108079Y146360D01*
X107169Y145984D01*
X106388Y145384D01*
X105788Y144603D01*
X105411Y143693D01*
X105283Y142717D01*
Y140748D01*
X105411Y139772D01*
X105788Y138862D01*
X106388Y138081D01*
X107169Y137481D01*
X107851Y137198D01*
Y136719D01*
X107178Y136047D01*
X98235D01*
X97353Y136929D01*
X97636Y137353D01*
X98236Y137104D01*
X99213Y136976D01*
X100189Y137104D01*
X101099Y137481D01*
X101880Y138081D01*
X102480Y138862D01*
X102857Y139772D01*
X102985Y140748D01*
Y142717D01*
X102857Y143693D01*
X102480Y144603D01*
X101880Y145384D01*
X101099Y145984D01*
X100417Y146266D01*
Y147244D01*
X100417Y147244D01*
X100325Y147705D01*
X100064Y148096D01*
X100064Y148096D01*
X97308Y150852D01*
X96917Y151113D01*
X96457Y151204D01*
X96457Y151204D01*
X76089D01*
X74311Y152983D01*
Y157185D01*
X68996D01*
Y152067D01*
X71821D01*
X74739Y149148D01*
X74739Y149148D01*
X75130Y148887D01*
X75590Y148796D01*
X75591Y148796D01*
X95958D01*
X98008Y146745D01*
Y146266D01*
X97326Y145984D01*
X96545Y145384D01*
X95946Y144603D01*
X95569Y143693D01*
X95440Y142717D01*
Y140748D01*
X95569Y139772D01*
X95817Y139172D01*
X95393Y138888D01*
X86974Y147308D01*
X86583Y147569D01*
X86122Y147661D01*
X86122Y147661D01*
X71365D01*
X61088Y157938D01*
X60697Y158199D01*
X60236Y158291D01*
D02*
G37*
G36*
X121078Y118398D02*
X118610D01*
Y116028D01*
X121078D01*
Y118398D01*
D02*
G37*
G36*
X26787Y118520D02*
X21366D01*
Y114673D01*
X26787D01*
Y118520D01*
D02*
G37*
G36*
X20366D02*
X14945D01*
Y114673D01*
X20366D01*
Y118520D01*
D02*
G37*
G36*
X63303Y117217D02*
X59949D01*
Y114453D01*
X63303D01*
Y117217D01*
D02*
G37*
G36*
X58949D02*
X55594D01*
Y114453D01*
X58949D01*
Y117217D01*
D02*
G37*
G36*
X8768Y117701D02*
Y114279D01*
X12189D01*
X12119Y114811D01*
X11720Y115773D01*
X11087Y116599D01*
X10261Y117232D01*
X9300Y117631D01*
X8768Y117701D01*
D02*
G37*
G36*
X7768D02*
X7236Y117631D01*
X6274Y117232D01*
X5449Y116599D01*
X4815Y115773D01*
X4417Y114811D01*
X4347Y114279D01*
X7768D01*
Y117701D01*
D02*
G37*
G36*
X120866Y115256D02*
X115354D01*
Y113783D01*
X113600D01*
Y114466D01*
X104225D01*
Y110691D01*
X113600D01*
Y111374D01*
X115354D01*
Y109941D01*
X120866D01*
Y115256D01*
D02*
G37*
G36*
X12189Y113279D02*
X8768D01*
Y109859D01*
X9300Y109929D01*
X10261Y110327D01*
X11087Y110960D01*
X11720Y111786D01*
X12119Y112748D01*
X12189Y113279D01*
D02*
G37*
G36*
X7768D02*
X4347D01*
X4417Y112748D01*
X4815Y111786D01*
X5449Y110960D01*
X6274Y110327D01*
X7236Y109929D01*
X7768Y109859D01*
Y113279D01*
D02*
G37*
G36*
X26787Y113673D02*
X21366D01*
Y109827D01*
X26787D01*
Y113673D01*
D02*
G37*
G36*
X20366D02*
X14945D01*
Y109827D01*
X20366D01*
Y113673D01*
D02*
G37*
%LPD*%
D14*
X77559Y119095D02*
D03*
Y111614D02*
D03*
X68110Y115354D02*
D03*
Y111614D02*
D03*
Y119095D02*
D03*
D15*
X79528Y126772D02*
D03*
X73228Y126771D02*
D03*
X124016Y125984D02*
D03*
X117716Y125984D02*
D03*
X66929Y134055D02*
D03*
X73229Y134056D02*
D03*
D16*
X118110Y112598D02*
D03*
X118110Y118898D02*
D03*
D17*
X89513Y127579D02*
D03*
Y122579D02*
D03*
Y117579D02*
D03*
Y112579D02*
D03*
X108913D02*
D03*
Y117579D02*
D03*
Y122579D02*
D03*
Y127579D02*
D03*
D18*
X80709Y142224D02*
D03*
Y154626D02*
D03*
X71653D02*
D03*
Y142224D02*
D03*
D19*
X59449Y117717D02*
D03*
X59448Y124803D02*
D03*
D20*
X36614Y114173D02*
D03*
X20866D02*
D03*
D21*
X7480Y145669D02*
D03*
X50000D02*
D03*
D22*
X16929Y136811D02*
D03*
X24803D02*
D03*
X32677D02*
D03*
X40551D02*
D03*
D34*
X32677Y150000D02*
X37008Y154331D01*
X56299D02*
X64961Y145669D01*
X37008Y154331D02*
X56299D01*
X89513Y112579D02*
X98701D01*
X102559Y116437D02*
Y126387D01*
X98701Y112579D02*
X102559Y116437D01*
Y126387D02*
X103712Y127540D01*
X108874D01*
X108913Y127579D01*
X124016Y109449D02*
Y118504D01*
X59449Y107874D02*
Y117717D01*
X122047Y107480D02*
X124016Y109449D01*
X59055Y107480D02*
X122047D01*
X73130Y126869D02*
Y133957D01*
Y126869D02*
X73228Y126771D01*
X73130Y133957D02*
X73229Y134056D01*
X68110Y118898D02*
X71681D01*
X67913Y119095D02*
X68110Y118898D01*
X66929Y134055D02*
Y134153D01*
Y124803D02*
Y134055D01*
X76870Y136690D02*
X79528Y134033D01*
X74947Y138681D02*
X76870Y136758D01*
Y136690D02*
Y136758D01*
X64961Y139933D02*
Y145669D01*
X66212Y138681D02*
X74947D01*
X64961Y139933D02*
X66212Y138681D01*
X79825Y127463D02*
X86713D01*
X79528Y127165D02*
Y134033D01*
X32677Y136811D02*
Y150000D01*
X22019Y107480D02*
X59055D01*
X59449Y107874D01*
X79528Y127165D02*
X79825Y127463D01*
X59448Y124803D02*
X66929D01*
X66929Y124803D01*
X67126Y119095D02*
X67913D01*
X66929Y119291D02*
Y124803D01*
Y119291D02*
X67126Y119095D01*
X73229Y122243D02*
Y127164D01*
Y122243D02*
X76378Y119095D01*
X77559D01*
X78937Y116339D02*
X82581Y112695D01*
X78937Y116339D02*
Y118898D01*
X82581Y112695D02*
X89397D01*
X78740Y119095D02*
X78937Y118898D01*
X77559Y119095D02*
X78740D01*
X124016Y118504D02*
Y125984D01*
X118110Y118898D02*
X123622D01*
X124016Y118504D01*
X86713Y127579D02*
X89513D01*
X71681Y118898D02*
X72835Y117745D01*
Y113386D02*
Y117745D01*
X71260Y111811D02*
X72835Y113386D01*
X68307Y111811D02*
X71260D01*
X68110Y111614D02*
X68307Y111811D01*
X48819Y113779D02*
Y120079D01*
X53544Y124803D02*
X59448D01*
X48819Y120079D02*
X53544Y124803D01*
X60039Y117717D02*
X62402Y115354D01*
X68110D01*
X20866Y108633D02*
Y114173D01*
Y108633D02*
X22019Y107480D01*
X20866Y114173D02*
X22441D01*
X59449Y117717D02*
X60039D01*
D35*
X24803Y150787D02*
X31102Y157087D01*
X60236D01*
X70866Y146457D01*
X97539Y134843D02*
X107677D01*
X109055Y136221D02*
Y141732D01*
X107677Y134843D02*
X109055Y136221D01*
X86122Y146457D02*
X97539Y135039D01*
X70866Y146457D02*
X86122D01*
X97539Y135039D02*
X97539D01*
X91339Y134646D02*
X95768Y130217D01*
X89572Y122638D02*
X95306D01*
X95768Y123099D01*
Y130217D01*
X94842Y117579D02*
X97539Y120276D01*
Y135039D01*
X99508Y128248D02*
X101575Y130315D01*
X96358Y115157D02*
X99508Y118307D01*
Y128248D01*
X84055Y115157D02*
X96358D01*
X114567Y122736D02*
X117716Y125885D01*
X108913Y117579D02*
X114106D01*
X114567Y118040D01*
Y122736D01*
X89513Y122579D02*
X89572Y122638D01*
X89513Y117579D02*
X94842D01*
X83071Y116142D02*
X84055Y115157D01*
X117716Y125984D02*
Y128741D01*
X116142Y130315D02*
X117716Y128741D01*
X101575Y130315D02*
X116142D01*
X83071Y116142D02*
Y121260D01*
X84390Y122579D01*
X89513D01*
X71653Y141437D02*
X80709D01*
Y142224D02*
X80807D01*
X88386Y134646D01*
X91339D01*
X106113Y117579D02*
X108913D01*
X80709Y141437D02*
Y142224D01*
X108913Y112579D02*
X118091D01*
X118110Y112598D01*
X117716Y125885D02*
Y125984D01*
X24803Y136811D02*
Y150787D01*
X99213Y141732D02*
Y147244D01*
X75590Y150000D02*
X96457D01*
X99213Y147244D01*
X71653Y153839D02*
X71752D01*
X75590Y150000D01*
X80709Y153839D02*
X107776D01*
X118898Y142717D01*
Y141732D02*
Y142717D01*
X106113Y112579D02*
X108913D01*
D36*
X10375Y114173D02*
X20866D01*
X38189D02*
X47499D01*
X36614D02*
X38189D01*
X23819Y115551D02*
Y117126D01*
X32677Y125984D02*
Y136811D01*
X22441Y114173D02*
X23819Y115551D01*
Y117126D02*
X32677Y125984D01*
X38189Y114173D02*
X39567Y115551D01*
Y121063D01*
X40551Y122047D02*
Y136811D01*
X39567Y121063D02*
X40551Y122047D01*
D37*
X48819Y113779D02*
D03*
X8268D02*
D03*
D38*
X118898Y141732D02*
D03*
X109055D02*
D03*
X99213D02*
D03*
D39*
X59449Y111024D02*
D03*
X79528Y133465D02*
D03*
X124016Y119291D02*
D03*
M02*
