G04*
G04 #@! TF.GenerationSoftware,Altium Limited,Altium Designer,20.1.14 (287)*
G04*
G04 Layer_Color=8388736*
%FSLAX25Y25*%
%MOIN*%
G70*
G04*
G04 #@! TF.SameCoordinates,1A763A23-7295-4F3A-9B5C-2D741166247D*
G04*
G04*
G04 #@! TF.FilePolarity,Negative*
G04*
G01*
G75*
%ADD23R,0.05524X0.03162*%
%ADD24R,0.04540X0.04737*%
%ADD25R,0.04737X0.04540*%
%ADD26R,0.08600X0.03000*%
%ADD27R,0.04540X0.04343*%
%ADD28R,0.06509X0.05328*%
%ADD29R,0.10642X0.07493*%
%ADD30R,0.07099X0.12611*%
%ADD31R,0.04737X0.22453*%
%ADD32C,0.06706*%
%ADD33O,0.06706X0.08674*%
D23*
X77559Y119095D02*
D03*
Y111614D02*
D03*
X68110Y115354D02*
D03*
Y111614D02*
D03*
Y119095D02*
D03*
D24*
X79528Y126772D02*
D03*
X73228Y126771D02*
D03*
X124016Y125984D02*
D03*
X117716Y125984D02*
D03*
X66929Y134055D02*
D03*
X73229Y134056D02*
D03*
D25*
X118110Y112598D02*
D03*
X118110Y118898D02*
D03*
D26*
X89513Y127579D02*
D03*
Y122579D02*
D03*
Y117579D02*
D03*
Y112579D02*
D03*
X108913D02*
D03*
Y117579D02*
D03*
Y122579D02*
D03*
Y127579D02*
D03*
D27*
X80709Y142224D02*
D03*
Y154626D02*
D03*
X71653D02*
D03*
Y142224D02*
D03*
D28*
X59449Y117717D02*
D03*
X59448Y124803D02*
D03*
D29*
X36614Y114173D02*
D03*
X20866D02*
D03*
D30*
X7480Y145669D02*
D03*
X50000D02*
D03*
D31*
X16929Y136811D02*
D03*
X24803D02*
D03*
X32677D02*
D03*
X40551D02*
D03*
D32*
X48819Y113779D02*
D03*
X8268D02*
D03*
D33*
X118898Y141732D02*
D03*
X109055D02*
D03*
X99213D02*
D03*
M02*
